<svg width="259" height="45" viewBox="0 0 259 45" fill="none" xmlns="http://www.w3.org/2000/svg">
<path d="M97.1826 36.5254V8.47477H103.594V19.0938H114.414V8.47477H120.825V36.5254H114.414V25.7055H103.594V36.5254H97.1826Z" fill="white"/>
<path d="M142.685 18.6701C140.695 16.6848 138.152 15.6901 135.049 15.6901C131.952 15.6901 129.408 16.6848 127.414 18.6701C125.424 20.6645 124.434 23.2084 124.434 26.3056C124.434 29.4075 125.424 31.9514 127.414 33.9412C129.408 35.9311 131.952 36.9258 135.049 36.9258C138.152 36.9258 140.695 35.9311 142.685 33.9412C144.675 31.9514 145.669 29.4075 145.669 26.3056C145.669 23.2084 144.675 20.6645 142.685 18.6701ZM140.01 31.3133H129.99V21.2986H140.01V31.3133Z" fill="white"/>
<path d="M149.076 36.5254H155.087V8.47479H149.076V36.5254Z" fill="white"/>
<path d="M173.721 8.47399V17.6897H173.521C173.066 17.2353 172.651 16.9016 172.278 16.687C171.101 16.0203 169.779 15.6872 168.31 15.6872C165.559 15.6872 163.235 16.687 161.338 18.6924C159.442 20.6948 158.493 23.2336 158.493 26.3062C158.493 29.3789 159.442 31.9153 161.338 33.9206C163.235 35.9231 165.559 36.9258 168.31 36.9258C169.94 36.9258 171.369 36.5246 172.597 35.7228C173.106 35.3497 173.546 34.9485 173.922 34.5198H174.123L174.521 36.5246H179.732V8.47399H173.721ZM173.721 31.3138H163.702V21.2963H173.721V31.3138Z" fill="white"/>
<path d="M184.139 13.6836H190.15V8.47397H184.139V13.6836Z" fill="white"/>
<path d="M184.139 36.5254H190.15V16.0886H184.139V36.5254Z" fill="white"/>
<path d="M211.69 18.031C210.151 16.4692 208.184 15.688 205.778 15.688C204.095 15.688 202.679 16.0612 201.53 16.8097C200.942 17.1565 200.488 17.5182 200.169 17.8914H199.968L199.567 16.0892H194.356V36.5254H200.369V21.4974H207.983V36.5254H213.994V24.1019C213.994 21.6187 213.225 19.5957 211.69 18.031Z" fill="white"/>
<path d="M232.226 16.0894L231.825 18.0919H231.625C231.249 17.6375 230.837 17.2363 230.382 16.8889C229.261 16.0894 227.936 15.6882 226.415 15.6882C223.664 15.6882 221.406 16.6022 219.642 18.4324C217.879 20.2626 216.998 22.6193 216.998 25.5054C216.998 28.3921 217.879 30.7488 219.642 32.579C221.406 34.4092 223.664 35.3226 226.415 35.3226C227.804 35.3226 229.007 34.9896 230.021 34.3205C230.448 34.0802 230.849 33.7471 231.224 33.3202H231.425V35.7238C231.425 36.9268 231.077 37.6227 230.382 38.2894C229.688 38.9584 228.699 39.2921 227.417 39.2921C226.055 39.2921 225.013 38.9304 224.29 38.2105C223.943 37.8631 223.717 37.4899 223.61 37.0888H217.399C217.585 38.4502 218.08 39.6933 218.881 40.8144C220.591 43.2718 223.435 44.5 227.417 44.5C230.676 44.5 233.161 43.7125 234.87 42.1364C236.579 40.5603 237.434 38.5819 237.434 35.7238V16.0894H232.226ZM231.425 29.7136H223.008V21.2973H231.425V29.7136Z" fill="white"/>
<path d="M251.662 24.1046L248.654 23.7011C247.054 23.4619 246.251 22.9268 246.251 22.1004V20.2936H252.592V22.1004H258.275C258.115 20.8946 257.683 19.8295 256.989 18.891C255.44 16.7551 252.864 15.6855 249.255 15.6855C246.477 15.6855 244.313 16.3002 242.764 17.5295C241.216 18.7593 240.441 20.2845 240.441 22.1004C240.441 23.8373 240.981 25.1931 242.065 26.1649C243.144 27.1412 244.876 27.7885 247.256 28.1078L250.259 28.5113C251.165 28.6429 251.794 28.8587 252.141 29.1494C252.488 29.4453 252.662 29.9002 252.662 30.5155V32.5191H246.045V30.1114H240.239C240.319 31.3693 240.709 32.5048 241.403 33.5189C242.98 35.7903 245.665 36.9258 249.457 36.9258C252.315 36.9258 254.534 36.3111 256.111 35.0813C257.683 33.852 258.472 32.3314 258.472 30.5155C258.472 26.8264 256.201 24.6912 251.662 24.1046Z" fill="white"/>
<path d="M89.207 0.5V44.5H0.52832V8.47383H8.50216V0.5H89.207Z" fill="white"/>
<path d="M8.50195 36.5254V8.47477H22.1267C24.611 8.47477 26.6009 9.19587 28.0974 10.6381C29.5934 12.0808 30.3414 13.9648 30.3414 16.2889C30.3414 17.9715 29.8338 19.4812 28.8185 20.8169C28.4442 21.3515 27.9504 21.8454 27.3363 22.2998V22.5001C28.0305 22.9808 28.5919 23.4884 29.0194 24.023C30.1674 25.4926 30.742 27.055 30.742 28.7112C30.742 31.0353 29.994 32.9188 28.498 34.3615C27.0015 35.8043 25.0122 36.5254 22.5273 36.5254H8.50195ZM14.1122 19.6952H21.1251C21.9263 19.6952 22.5937 19.4285 23.1288 18.8934C23.6627 18.3595 23.93 17.691 23.93 16.8898C23.93 16.0886 23.6627 15.4208 23.1288 14.8862C22.5937 14.3523 21.9263 14.085 21.1251 14.085H14.1122V19.6952ZM14.1122 30.9151H21.5257C22.327 30.9151 22.9948 30.6485 23.5294 30.1139C24.0633 29.5794 24.3306 28.9115 24.3306 28.1103C24.3306 27.3085 24.0633 26.6412 23.5294 26.1067C22.9948 25.5727 22.327 25.3049 21.5257 25.3049H14.1122V30.9151Z" fill="white"/>
<path d="M51.7992 18.6712C49.8082 16.6825 47.2649 15.6872 44.1664 15.6872C41.0657 15.6872 38.5224 16.6825 36.5314 18.6712C34.5404 20.6622 33.5469 23.2078 33.5469 26.3062C33.5469 29.4046 34.5404 31.9502 36.5314 33.939C38.5224 35.93 41.0657 36.9258 44.1664 36.9258C47.2649 36.9258 49.8082 35.93 51.7992 33.939C53.7902 31.9502 54.7854 29.4046 54.7854 26.3062C54.7854 23.2078 53.7902 20.6622 51.7992 18.6712ZM49.174 31.3138H39.1565V21.2963H49.174V31.3138Z" fill="black"/>
<path d="M58.1914 36.5254H64.2023V8.47479H58.1914V36.5254Z" fill="black"/>
<path d="M76.6239 21.2971H81.2327V15.688H76.6239V8.47421H70.6137V15.688H67.4082V21.2971H70.6137V30.914C70.6137 34.6557 72.5509 36.5254 76.4236 36.5254H81.2327V31.3146H76.6239V21.2971Z" fill="black"/>
<path d="M8.50195 36.5254V8.47477H22.1267C24.611 8.47477 26.6009 9.19587 28.0974 10.6381C29.5934 12.0808 30.3414 13.9648 30.3414 16.2889C30.3414 17.9715 29.8338 19.4812 28.8185 20.8169C28.4442 21.3515 27.9504 21.8454 27.3363 22.2998V22.5001C28.0305 22.9808 28.5919 23.4884 29.0194 24.023C30.1674 25.4926 30.742 27.055 30.742 28.7112C30.742 31.0353 29.994 32.9188 28.498 34.3615C27.0015 35.8043 25.0122 36.5254 22.5273 36.5254H8.50195ZM14.1122 19.6952H21.1251C21.9263 19.6952 22.5937 19.4285 23.1288 18.8934C23.6627 18.3595 23.93 17.691 23.93 16.8898C23.93 16.0886 23.6627 15.4208 23.1288 14.8862C22.5937 14.3523 21.9263 14.085 21.1251 14.085H14.1122V19.6952ZM14.1122 30.9151H21.5257C22.327 30.9151 22.9948 30.6485 23.5294 30.1139C24.0633 29.5794 24.3306 28.9115 24.3306 28.1103C24.3306 27.3085 24.0633 26.6412 23.5294 26.1067C22.9948 25.5727 22.327 25.3049 21.5257 25.3049H14.1122V30.9151Z" fill="black"/>
</svg>

